<svg xmlns="http://www.w3.org/2000/svg" viewBox="0 0 370 101.42">
    <defs>
        <style>.cls-1 {
            fill: #af5ea1;
        }</style>
    </defs>
    <g id="Calque_2" data-name="Calque 2">
        <g id="Calque_1-2" data-name="Calque 1">
            <path class="cls-1"
                  d="M15.64,29.22l-2.56-1.13-1.61-1.63-1.06-2.14L10,22.26V18.73l.45-2.11,1.06-2.14,1.65-1.61,2.52-1.1h2.52l2.5,1,1.08.84.94,1.11L21.26,16l-.84-.94-.74-.6-1.8-.76H16l-1.7.76-1.16,1.16-.81,1.6L12,18.87v3.22l.36,1.61.81,1.58,1.13,1.15,1.73.82h1.9l1.82-.77.74-.6.82-.94,1.42,1.35-.94,1.1-1.08.84-2.5,1Zm14.33,0-2.42-1.13-1.27-1.8-.51-2.16V21.3l.51-2.16,1.27-1.81L30,16.18h2.88l2.4,1.15,1.27,1.81L37,21.3v2.83l-.5,2.16-1.27,1.8L32.8,29.22Zm.34-1.95h2.16l1.44-.69.77-1.08L35,23.89V21.51l-.33-1.58-.77-1.06-1.44-.72H30.31l-1.44.72-.77,1.06-.34,1.58v2.38l.34,1.61.77,1.08ZM41.88,29V16.38h2v1.24l.6-.52,1.58-.92H48.5l2.14.58,1.46,2V29h-2V19.54l-.6-1-1.42-.43H46.32l-1.73,1.11-.72,1V29Zm18.93.2-1.94-.53-1.18-.89-.6-.62,1.39-1.35.51.55.67.51,1.42.38h2.06l1-.29.6-.43.41-.6V25l-.41-.7-.72-.5-3.94-.7-1.53-.81-1-1.39V18.8l.79-1.37,1.08-.84,1.49-.41h2.42l1.87.53,1.64,1-1.08,1.6-1.3-.79-1.3-.41h-2l-.91.27-.41.33-.33.58v1.06L60,21l.67.34,4.15.72,1.37.91.93,1.54v2l-.93,1.39L65,28.74l-1.64.48Zm15.58,0L74,28.06l-1.63-2.2-.5-1.71V21.3l.5-1.76L74,17.33l2.4-1.15H79l2.42,1.15L83,19.54l.55,1.61v2.52H73.82v.24L74.13,25l1.15,1.56,1.47.72h1.94l1.61-.41,1.25-.79,1,1.58-1.56,1-2.18.56ZM73.82,21.7h7.75v-.31l-.31-.91-1.15-1.56-1.47-.77h-2l-1.44.75-1.13,1.53-.29,1.06ZM89.64,29V16.38h2v1.46l.91-.89,1.63-.77h2.52l2.23.77-.6,1.87-1.92-.67H94.56l-1.42.63-1,1.1L91.63,21v8Zm17.64,0-5.5-12.64h2.16l4.25,10,4.25-10h2.16L109.1,29Zm14.92.2-1.63-.51L119.42,28l-1.34-1.94V24.7l.33-1.63,1.78-1.77,2.37-.6h1.73l1.61.52.62.41V19.81l-.26-.72-1-.65-1.17-.29h-2l-1,.34-.74.48-.46.45L118.53,18l.67-.63,1.16-.74,1.53-.46h2.47l1.73.44,1.78,1.2.65,1.63v7.27l.93,1.34-1.61,1.16-1.15-1.73-.55.62-2.21,1.11Zm.29-2h1l1.8-.67,1-1,.24-.74v-.89l-.5-.53-.74-.38-1.2-.34h-1.3l-1.58.44-.94.93-.19.84v.65l.74,1.06.55.33Zm17.31,2-1.68-.63-1.33-1.89v-8h-3.24v-2h3.24V12.27h2v4.42h4.75v2h-4.75v7.39l.6.86.84.34h2.11l1.73-.43.5,1.89-2.23.51Zm13,0-2.42-1.13-1.27-1.8-.51-2.16V21.3l.51-2.16,1.27-1.81,2.4-1.15h2.88l2.4,1.15,1.27,1.81.5,2.16v2.83l-.5,2.16-1.27,1.8-2.43,1.13Zm.34-1.95h2.16l1.44-.69.77-1.08.33-1.61V21.51l-.33-1.58-.77-1.06-1.44-.72h-2.16l-1.44.72L151,19.93l-.34,1.58v2.38L151,25.5l.77,1.08ZM165.12,29v-2h3.93V18.34h-3.69v-2H171V27.06H175v2Zm3.48-15.14v-3h2.85v3ZM181.79,29V16.38h2v1.46l.91-.89,1.63-.77h2.52l2.23.77-.6,1.87-1.92-.67h-1.84l-1.42.63-1,1.1L183.79,21v8Zm17.48.2-2.43-1.16-1.63-2.2-.5-1.71V21.3l.5-1.76,1.63-2.21,2.4-1.15h2.62l2.42,1.15,1.61,2.21.55,1.61v2.52H196.7v.24L197,25l1.15,1.56,1.47.72h1.94l1.61-.41,1.25-.79,1,1.58-1.56,1-2.18.56ZM196.7,21.7h7.75v-.31l-.31-.91L203,18.92l-1.47-.77h-2l-1.44.75L197,20.43l-.29,1.06Zm29.38,11.21V16.38h2v1.27l.53-.55,1.49-.92h2.4l2.5,1.15,1.63,2.21.5,1.71V24.1l-.5,1.76L235,28.06l-2.4,1.16h-2.38l-1.44-.53-.67-.43v4.65Zm4.39-5.64h1.77l1.42-.77L234.81,25l.29-1.13V21.51l-.29-1.08-1.15-1.56-1.51-.72h-1.83l-1.56,1.11-.69,1v5.45l.5.62.91.6ZM245,29.22l-2.42-1.13-1.27-1.8-.51-2.16V21.3l.51-2.16,1.27-1.81,2.4-1.15h2.88l2.4,1.15,1.27,1.81.5,2.16v2.83l-.5,2.16-1.27,1.8-2.43,1.13Zm.34-1.95h2.16l1.44-.69.77-1.08.33-1.61V21.51l-.33-1.58L249,18.87l-1.44-.72h-2.16l-1.44.72-.77,1.06-.34,1.58v2.38l.34,1.61.77,1.08Zm11.44,5.64V16.38h2v1.27l.53-.55,1.49-.92h2.4l2.5,1.15,1.63,2.21.5,1.71V24.1l-.5,1.76-1.63,2.2-2.4,1.16H260.9l-1.44-.53-.67-.43v4.65Zm4.4-5.64H263l1.42-.77L265.53,25l.29-1.13V21.51l-.29-1.08-1.15-1.56-1.51-.72H261l-1.56,1.11-.69,1v5.45l.5.62.91.6Zm14.47,1.95-2.19-.58-1.55-2V16.38h2V25.9l.69,1,1.37.36h1.61l1.7-1.13.75-1V16.38h2V29h-2V27.75l-.62.55-1.59.92ZM288,29v-2h3.93V12.89h-3.69v-2h5.68V27.06h3.94v2Zm18.52.2-1.63-.51L303.74,28l-1.35-1.94V24.7l.34-1.63,1.78-1.77,2.37-.6h1.73l1.61.52.62.41V19.81l-.26-.72-1-.65-1.17-.29h-1.95l-1,.34-.74.48-.46.45L302.85,18l.67-.63,1.16-.74,1.53-.46h2.47l1.73.44,1.78,1.2.65,1.63v7.27l.93,1.34-1.61,1.16L311,27.49l-.55.62-2.21,1.11Zm.29-2h1l1.8-.67,1-1,.24-.74v-.89l-.5-.53L309.6,23l-1.2-.34h-1.3l-1.58.44-.94.93-.19.84v.65l.74,1.06.55.33ZM318.71,29v-2h3.94V18.34H319v-2h5.68V27.06h3.94v2Zm3.49-15.14v-3h2.85v3ZM335.39,29V16.38h2v1.46l.91-.89,1.63-.77h2.52l2.23.77-.6,1.87-1.92-.67h-1.84l-1.42.63-1,1.1L337.39,21v8Zm17.48.2-2.43-1.16-1.63-2.2-.5-1.71V21.3l.5-1.76,1.63-2.21,2.4-1.15h2.62l2.42,1.15,1.61,2.21.55,1.61v2.52H350.3v.24l.31,1.06,1.15,1.56,1.47.72h1.94l1.61-.41,1.25-.79,1.05,1.58-1.56,1-2.18.56ZM350.3,21.7h7.75v-.31l-.31-.91-1.15-1.56-1.47-.77h-2l-1.45.75-1.12,1.53-.29,1.06ZM106.8,58.21l-2.5-1.15-1.63-2.21-.51-1.71V50.29l.51-1.75,1.63-2.21,2.4-1.16h2.38l1.44.53.67.43V39.92h2V58h-2V56.74l-.53.56-1.48.91Zm.31-2h1.82l1.56-1.1.7-1V48.66l-.51-.63-.91-.6-1-.31H107l-1.41.77-1.16,1.53-.28,1.13v2.33l.28,1.08,1.16,1.56Zm15.36,2L120,57.06l-1.63-2.21-.5-1.71V50.29l.5-1.75L120,46.33l2.4-1.16h2.62l2.42,1.16,1.61,2.21.55,1.6v2.52H119.9v.24l.31,1.06,1.15,1.56,1.47.72h1.94l1.61-.41,1.25-.79,1.05,1.58-1.56,1-2.18.55ZM119.9,50.7h7.75v-.32l-.31-.91-1.15-1.56-1.47-.77h-2l-1.44.75-1.13,1.53-.29,1.06ZM147.71,58V45.37h2v1.24l.36-.52,1.1-.92h1.39l1.44.58.82,1.25.82-1,1.2-.82h1.39l1.44.58,1.37,2V58h-2v-9.6l-.6-.92-.69-.36h-.65l-1.2,1-.53,1.06V58h-2V48.51l-.6-1-.7-.41h-.64l-1.25,1.06-.48,1V58Zm20.43.19L166,57.63l-1.56-2V45.37h2V54.9l.69,1,1.37.36h1.61l1.7-1.12.75-1V45.37h2V58h-2V56.74l-.62.56-1.59.91Zm15.55,0-1.94-.53-1.18-.89-.6-.62,1.39-1.35.51.56.67.5,1.42.38H186l1-.28.6-.44.41-.6V54l-.41-.7-.72-.5-3.94-.7-1.53-.81-1-1.39V47.79l.79-1.37,1.08-.84,1.49-.41h2.42l1.87.53,1.64,1-1.08,1.6-1.3-.79-1.3-.41h-2l-.91.27-.41.33-.33.58v1.06l.48.64.67.34,4.15.72,1.37.91.93,1.54v2l-.93,1.39-1.15.82-1.64.48ZM195.84,58v-2h3.93V47.33h-3.69v-2h5.68V56.05h3.94v2Zm3.48-15.15V39.92h2.85v2.95Zm19.39,19V56.74l-.53.56-1.46.91h-2.4l-2.5-1.15-1.63-2.21-.51-1.71V50.29l.51-1.75,1.63-2.21,2.4-1.16h2.38l1.44.53.67.43v-.76h2V61.9Zm-4.08-5.66h1.82l1.56-1.1.7-1V48.66L218.2,48l-.91-.6-1-.31h-1.78l-1.41.77L212,49.42l-.28,1.13v2.33L212,54l1.16,1.56Zm15,2-2.18-.58-1.56-2V45.37h2V54.9l.69,1,1.37.36h1.61l1.7-1.12.75-1V45.37h2V58h-2V56.74l-.62.56-1.59.91Zm15.77,0-2.43-1.15-1.63-2.21-.5-1.71V50.29l.5-1.75,1.63-2.21,2.4-1.16h2.62l2.42,1.16L252,48.54l.55,1.6v2.52h-9.74v.24l.31,1.06,1.15,1.56,1.47.72h1.94l1.61-.41,1.25-.79,1.05,1.58-1.56,1-2.18.55Zm-2.57-7.51h7.75v-.32l-.31-.91-1.15-1.56-1.47-.77h-2l-1.44.75-1.13,1.53-.29,1.06Zm18.55,10.87L260,60.8,261.5,58l-1.1-.43V54.78h3.14V57.7Zm29.79-3.36-2.5-1.15L287,54.85l-.51-1.71V50.29l.51-1.75,1.63-2.21,2.4-1.16h2.38l1.44.53.67.43V39.92h2V58h-2V56.74l-.53.56-1.48.91Zm.31-2h1.82l1.56-1.1.7-1V48.66L295,48l-.91-.6-1-.31h-1.78l-1.41.77-1.16,1.53-.28,1.13v2.33l.28,1.08,1.16,1.56Zm15.09,2-1.63-.51L303.74,57l-1.35-1.94V53.7l.34-1.64,1.78-1.77,2.37-.6h1.73l1.61.52.62.41V48.8l-.26-.72-1-.65-1.17-.29h-1.95l-1,.34-.74.48-.46.46L302.85,47l.67-.62,1.16-.75,1.53-.46h2.47l1.73.44,1.78,1.2.65,1.63v7.27l.93,1.35-1.61,1.15L311,56.48l-.55.62-2.21,1.11Zm.29-2h1l1.8-.67,1-1,.24-.75V52.9l-.5-.52L309.6,52l-1.2-.33h-1.3l-1.58.43-.94.93-.19.84v.65l.74,1.06.55.33ZM318.36,58V45.37h2v1.24l.6-.52,1.58-.92H325l2.14.58,1.46,2V58h-2V48.54l-.6-1-1.42-.44h-1.78l-1.72,1.11-.72,1V58Zm18.93.19-1.94-.53-1.18-.89-.6-.62L335,54.82l.51.56.67.5,1.42.38h2.06l1-.28.6-.44.41-.6V54l-.41-.7-.72-.5-3.94-.7L335,51.32l-1-1.39V47.79l.79-1.37,1.08-.84,1.49-.41h2.42l1.87.53,1.64,1-1.08,1.6-1.3-.79-1.3-.41h-2l-.91.27-.41.33-.33.58v1.06l.48.64.67.34,4.15.72,1.37.91.93,1.54v2l-.93,1.39-1.15.82-1.64.48Zm15.58,0-2.43-1.15-1.63-2.21-.5-1.71V50.29l.5-1.75,1.63-2.21,2.4-1.16h2.62l2.42,1.16,1.61,2.21.55,1.6v2.52H350.3v.24l.31,1.06,1.15,1.56,1.47.72h1.94l1.61-.41L358,55l1.05,1.58-1.56,1-2.18.55ZM350.3,50.7h7.75v-.32l-.31-.91-1.15-1.56-1.47-.77h-2l-1.45.75-1.12,1.53-.29,1.06ZM214.63,87.2l-2.43-1.15-1.63-2.21-.5-1.7V79.28l.5-1.75,1.63-2.21,2.4-1.15h2.62l2.42,1.15,1.61,2.21.55,1.6v2.53h-9.74v.24l.31,1,1.15,1.56,1.47.72h1.94l1.61-.41,1.25-.79,1.05,1.59-1.56,1-2.18.55Zm-2.57-7.51h7.75v-.31l-.31-.92-1.15-1.56-1.47-.77h-2l-1.44.75-1.13,1.54-.29,1ZM232,87.2l-1.68-.62L229,84.68v-8h-3.25v-2H229V70.25h2v4.42h4.75v2H231V84l.6.87.84.33h2.11l1.73-.43.5,1.9-2.23.5Zm30.72,0L261,86.58l-1.32-1.9v-8h-3.24v-2h3.24V70.25h2v4.42h4.75v2h-4.75V84l.6.87.84.33h2.11L267,84.8l.5,1.9-2.23.5ZM272.4,87V68.91h2v6.65l.57-.48,1.61-.91H279l2,.57,1.46,2V87h-2V77.48l-.6-.94-1.3-.41h-1.77l-1.68,1.11-.77,1.13V87Zm19,.19L289,86.05l-1.63-2.21-.5-1.7V79.28l.5-1.75L289,75.32l2.4-1.15H294l2.42,1.15,1.61,2.21.55,1.6v2.53h-9.74v.24l.31,1,1.15,1.56,1.47.72h1.94l1.61-.41,1.25-.79,1.05,1.59-1.56,1-2.18.55Zm-2.57-7.51h7.75v-.31l-.31-.92-1.15-1.56-1.47-.77h-2l-1.44.75-1.13,1.54-.29,1Zm2-6.34-1-1.46,4.3-3,1,1.46ZM306.52,87.2l-1.63-.5L303.74,86l-1.34-1.94V82.69l.33-1.63,1.78-1.78,2.37-.6h1.73l1.61.53.62.41V77.79l-.26-.72-1-.65-1.17-.29h-1.95l-1,.34-.74.48-.46.46L302.85,76l.67-.62,1.16-.75,1.53-.45h2.47l1.73.43,1.78,1.2.65,1.63V84.7l.93,1.35-1.61,1.15L311,85.47l-.55.63-2.21,1.1Zm-1.6-14-1.13-1.37,3.45-2.78h1.25L312,71.86l-1.13,1.37-2.95-2.42Zm1.89,12h1l1.8-.67,1-1,.24-.75V81.9l-.5-.53L309.6,81l-1.2-.33h-1.3l-1.58.43-.94.94-.19.84v.64l.74,1.06.55.34Zm17.31,2-1.68-.62-1.32-1.9v-8h-3.24v-2h3.24V70.25h2v4.42h4.75v2h-4.75V84l.6.87.84.33h2.11l1.73-.43.5,1.9-2.23.5ZM335.4,87V74.36h2v1.46l.91-.89,1.63-.76h2.52l2.23.76-.6,1.88-1.92-.68h-1.84l-1.42.63-1,1.1L337.39,79v8Zm17.47.19-2.43-1.15-1.63-2.21-.5-1.7V79.28l.5-1.75,1.63-2.21,2.4-1.15h2.62l2.42,1.15,1.61,2.21.55,1.6v2.53H350.3v.24l.31,1,1.15,1.56,1.47.72h1.94l1.61-.41L358,84l1.05,1.59-1.56,1-2.18.55Zm-2.57-7.51h7.75v-.31l-.31-.92-1.15-1.56-1.47-.77h-2l-1.45.75-1.12,1.54-.29,1ZM356.38,1.5l6.06,6.06,6.06,6.06V29.38l-1.89,1.89L362.84,35l-1.07,1.06,1.07,1.06,3.77,3.77,1.89,1.9V58.59l-5.66,5.66-1.07,1.06,1.07,1.06,3.77,3.77L368.5,72V87.79l-6.06,6.07-6.06,6.06H213.62l-6.06-6.06-6.06-6.07V77.59l-.44-.44-6-6-.44-.44h-88L94.5,58.59V48.38l-.44-.44-6-6-.44-.44h-74L1.5,29.38V13.62L13.62,1.5H356.38M357,0H13L0,13V30L13,43H87l6,6V59.21l13,13h88l6,6V88.42c5.08,5.07,7.92,7.92,13,13H357l13-13v-17l-6.1-6.11,6.1-6.1v-17l-6.1-6.11L370,30V13L357,0Z"/>
        </g>
    </g>
</svg>
