<svg xmlns="http://www.w3.org/2000/svg" viewBox="0 0 181 43"><defs><style>.cls-1{fill:#93cba2;}</style></defs><g id="Calque_2" data-name="Calque 2"><g id="Calque_1-2" data-name="Calque 1"><path class="cls-1" d="M167.38,1.5,179.5,13.62V29.38l-6.06,6.06-6.06,6.06H13.62L7.56,35.44,1.5,29.38V13.62L13.62,1.5H167.38M168,0H13L0,13V30L13,43H168l13-13V13L168,0ZM15.68,28.65v-2h4V13.24H15.8v-2h9.83v2h-3.9v13.4h4v2Zm15.75,0V15.73h2V17l.61-.54,1.62-.93h2.5l2.18.59,1.49,2V28.65h-2V19l-.61-1-1.45-.44H36L34.2,18.68l-.73,1.05v8.92Zm19.73,0L45.55,15.73h2.2L52.09,26l4.34-10.25h2.2L53,28.65Zm12,0v-2h4v-8.9H63.41v-2h5.8V26.64h4v2Zm3.55-15.46v-3h2.92v3ZM84.36,28.85l-1.72-.64-1.35-1.94V18.06H78v-2h3.31V11.54h2v4.51h4.85v2H83.33v7.55l.61.88.86.35H87l1.77-.44.51,1.93L87,28.85Zm13.67,0-2.48-1.18-1.67-2.26-.51-1.74V20.76L93.88,19l1.67-2.25L98,15.54h2.67l2.48,1.18L104.79,19l.56,1.64v2.57H95.4v.25l.32,1.08L96.9,26.1l1.49.74h2l1.64-.42,1.27-.81,1.08,1.62-1.59,1.05-2.23.57ZM95.4,21.18h7.92v-.32l-.32-.93-1.18-1.6-1.49-.78h-2l-1.47.76L95.7,19.88,95.4,21Zm2.06-6.47-1-1.5,4.39-3.11,1,1.49Zm15.73,7.13V18.53h3.21v3.31Zm16.2,7-2.48-1.18-1.66-2.26-.52-1.74V20.76l.52-1.79,1.66-2.25,2.45-1.18H132l2.48,1.18L136.15,19l.56,1.64v2.57h-10v.25l.32,1.08,1.18,1.59,1.49.74h2l1.64-.42,1.28-.81,1.07,1.62-1.59,1.05-2.23.57Zm-2.63-7.67h7.92v-.32l-.32-.93-1.17-1.6-1.5-.78h-2l-1.47.76-1.15,1.57-.3,1.07Zm17.79.66V18.53h3.21v3.31Zm16,7-2-.54-1.2-.91-.61-.64,1.42-1.37.51.56.69.52,1.45.39h2.1l1-.29.62-.44.41-.62v-.93l-.41-.71-.74-.51-4-.71-1.57-.84-1-1.42V18.21l.81-1.4,1.1-.85,1.52-.42h2.48l1.91.54,1.67,1-1.11,1.64-1.32-.8-1.32-.42h-2l-.93.27-.41.34-.35.59v1.08l.49.66.69.34,4.24.74,1.4.93L167,24V26.1L166,27.52l-1.18.84-1.67.49Z"/></g></g></svg>