<?xml version="1.0" encoding="utf-8"?>
<!-- Generator: Adobe Adobe Illustrator 28.5.0, SVG Export Plug-In . SVG Version: 6.00 Build 0)  -->
<svg version="1.1" id="Layer_1" xmlns="http://www.w3.org/2000/svg" xmlns:xlink="http://www.w3.org/1999/xlink" x="0px" y="0px"
	 viewBox="0 0 131 43" style="enable-background:new 0 0 131 43;" xml:space="preserve">
<style type="text/css">
	.st0{fill:#6969FF;}
</style>
<g id="Calque_2">
	<g id="Calque_1-2">
		<path class="st0" d="M117.4,1.5l12.1,12.1v15.8l-6.1,6.1l-6.1,6.1H13.6l-6.1-6.1l-6.1-6.1V13.6L13.6,1.5L117.4,1.5 M118,0H13L0,13
			v17l13,13h105l13-13V13L118,0z"/>
	</g>
</g>
<g>
	<path class="st0" d="M11.2,29.3V11.6h2.1v15.7h8v2H11.2z"/>
	<path class="st0" d="M27.7,29.5l-2.5-1.2L23.5,26L23,24.2v-3l0.5-1.8l1.7-2.3l2.5-1.2h2.2l2.5,1.2l1.7,2.3l0.6,1.7v2.6H25V24
		l0.3,1.1l1.2,1.6l1.5,0.8h1.5l1.7-0.4l1.3-0.8l1.1,1.7L32,28.9l-2.3,0.6H27.7z M25,21.7h7.5v-0.3l-0.3-0.9L31,18.8L29.5,18H28
		l-1.5,0.8l-1.2,1.6L25,21.5V21.7z"/>
	<path class="st0" d="M40.4,29.5L38.3,29L37.2,28l-0.6-0.7L38,26l0.5,0.6l0.7,0.5l1.5,0.4h1.7l1-0.3l0.6-0.5l0.4-0.6v-1L44,24.4
		l-0.7-0.5l-3.6-0.7l-1.6-0.9l-1-1.4v-2.2l0.8-1.4l1.1-0.9l1.5-0.4h2.1l2,0.5l1.5,1l-1.1,1.7l-1.2-0.8L42.5,18h-1.7l-0.9,0.3
		l-0.4,0.3l-0.3,0.6v1.1l0.5,0.7l0.7,0.4l3.8,0.7l1.4,1l1,1.6v2.1l-0.9,1.5L44.3,29l-1.7,0.5H40.4z"/>
	<path class="st0" d="M61,29.5l-2.6-1.3l-1.3-1.9l-0.5-1.9V17l0.6-2.1l1.7-2.3l2.6-1.2H64l2.5,1.2l1.1,1l-1.5,1.5l-0.8-0.8l-1.7-0.8
		H62l-1.7,0.8l-1.2,1.5l-0.4,1.6v2l0.8-0.7l2.1-0.9h2.3l2.6,1.3l1.2,1.8l0.5,1.7v2.1l-0.5,1.8l-1.2,1.8l-2.5,1.3H61z M61.5,27.5h2
		l1.6-0.8l0.7-1l0.4-1.3v-1.6l-0.3-1.1l-0.7-1l-1.6-0.8h-1.5l-1.7,0.7l-1.2,0.9l-0.4,0.7v2l0.3,1.3l0.8,1.2L61.5,27.5z"/>
	<path class="st0" d="M75.5,29.5l-1.7-0.7l-1.4-2v-8.4h-2.4v-2h2.4v-4.6h2.1v4.6h3.4v2h-3.4v7.7l0.6,0.9l0.9,0.3h0.7l1.8-0.5l0.5,2
		l-2.3,0.5H75.5z"/>
	<path class="st0" d="M84.8,29.5l-2.5-1.2l-1.2-1.8l-0.5-2.2v-2.9l0.5-2.2l1.2-1.8l2.5-1.2h2.6l2.5,1.2l1.2,1.8l0.5,2.2v2.9
		l-0.5,2.2L90,28.3l-2.5,1.2H84.8z M85.2,27.5h1.9l1.5-0.7l0.7-1.1l0.3-1.7v-2.5l-0.3-1.6l-0.8-1.1L87.1,18h-1.9l-1.5,0.8L83,19.8
		l-0.3,1.6V24l0.3,1.7l0.7,1.1L85.2,27.5z"/>
	<path class="st0" d="M94.9,13.6v-3.1h3v3.1H94.9z M95.3,29.3V16.2h2.1v13.2H95.3z"/>
	<path class="st0" d="M105.7,29.5l-1.7-0.7l-1.4-2v-8.4h-2.4v-2h2.4v-4.6h2.1v4.6h3.4v2h-3.4v7.7l0.6,0.9l0.9,0.3h0.7l1.8-0.5l0.5,2
		l-2.3,0.5H105.7z"/>
	<path class="st0" d="M114.7,29.5l-2.1-0.5l-1.2-0.9l-0.6-0.7l1.4-1.4l0.5,0.6l0.7,0.5l1.5,0.4h1.7l1-0.3l0.6-0.5l0.4-0.6v-1
		l-0.4-0.7l-0.7-0.5l-3.6-0.7l-1.6-0.9l-1-1.4v-2.2l0.8-1.4l1.1-0.9l1.5-0.4h2.1l2,0.5l1.5,1l-1.1,1.7l-1.2-0.8l-1.4-0.4h-1.7
		l-0.9,0.3l-0.4,0.3l-0.3,0.6v1.1l0.5,0.7l0.7,0.4l3.8,0.7l1.4,1l1,1.6v2.1l-0.9,1.5l-1.2,0.8l-1.7,0.5H114.7z"/>
</g>
</svg>
