<svg id="f8e2f0d5-af3b-4d63-9837-f39e925fa436" data-name="Calque 1" xmlns="http://www.w3.org/2000/svg" viewBox="0 0 200 43"><g id="ab6cff34-598f-4ac0-9286-9b325b19ec19" data-name="Calque 2"><g id="ac54e2e8-414f-44aa-9a33-05d7798a127a" data-name="Calque 1-2"><path d="M186.38,1.47,198.5,13.62V29.38l-6.06,6.06-6.06,6.06H13.62L7.56,35.44,1.5,29.38V13.62L13.62,1.5H186.38M187,0H13L0,13V30L13,43H187l13-13V13Z"/></g></g><path d="M58.9082,12.24072h12.71v2.146H61.22168v5.31787h9.60937v2.02686H61.22168V27.669h10.5752v2.08691H58.9082Z"/><path d="M74.19434,16.98584H76.2334v1.8125A5.70777,5.70777,0,0,1,78.15234,17.189a5.11635,5.11635,0,0,1,2.25391-.48925q2.71875,0,3.67187,1.896a6.71777,6.71777,0,0,1,.5254,2.96875v8.19141H82.4209V21.70752a4.35946,4.35946,0,0,0-.3457-1.88379A2.09555,2.09555,0,0,0,80.001,18.63135a4.21874,4.21874,0,0,0-1.252.15527,3.21466,3.21466,0,0,0-1.5498,1.04932,3.15538,3.15538,0,0,0-.69824,1.30517,8.85694,8.85694,0,0,0-.16016,1.92627v6.68848H74.19434Z"/><path d="M88.3418,16.98584l3.41015,10.397,3.55274-10.397h2.34863l-4.80664,12.77H90.55957l-4.71-12.77Z"/><path d="M108.25977,18.26074a6.44107,6.44107,0,0,1,1.69335,4.83594,8.33479,8.33479,0,0,1-1.49218,5.09863A5.38081,5.38081,0,0,1,103.832,30.209a5.21147,5.21147,0,0,1-4.15625-1.78125,7.05958,7.05958,0,0,1-1.53906-4.7832,7.64288,7.64288,0,0,1,1.62207-5.12207,5.42872,5.42872,0,0,1,4.35742-1.90625A5.72232,5.72232,0,0,1,108.25977,18.26074Zm-1.333,8.48633a8.09483,8.09483,0,0,0,.78418-3.59082,6.45139,6.45139,0,0,0-.56543-2.90527,3.17882,3.17882,0,0,0-3.08887-1.7627,3.03977,3.03977,0,0,0-2.83008,1.501,7.01548,7.01548,0,0,0-.88379,3.62012,6.09855,6.09855,0,0,0,.88379,3.39355,3.10486,3.10486,0,0,0,2.80664,1.35742A2.91978,2.91978,0,0,0,106.92676,26.74707Z"/><path d="M120.082,16.98584h2.373q-.45411,1.229-2.01563,5.60693-1.16748,3.29151-1.95507,5.36817a36.25042,36.25042,0,0,1-2.6211,5.957,2.99436,2.99436,0,0,1-2.62012,1.07226,5.04249,5.04249,0,0,1-.69726-.03613,5.40892,5.40892,0,0,1-.60156-.13086V32.86816a7.43436,7.43436,0,0,0,.80957.19043,3.216,3.216,0,0,0,.44043.03614,1.55224,1.55224,0,0,0,.875-.19629,1.82435,1.82435,0,0,0,.46972-.48242q.06006-.09522.42871-.97559.36915-.88036.53614-1.30859l-4.72168-13.146h2.43164l3.42285,10.40186Z"/><path d="M131.708,17.33789a4.84092,4.84092,0,0,1,1.93164,1.65137,5.73516,5.73516,0,0,1,.85351,2.25342,14.78773,14.78773,0,0,1,.18946,2.814h-9.28809a5.51389,5.51389,0,0,0,.91113,3.12695,3.035,3.035,0,0,0,2.63672,1.17676,3.38944,3.38944,0,0,0,2.66211-1.11328,3.7964,3.7964,0,0,0,.78906-1.49707h2.10938a4.447,4.447,0,0,1-.55273,1.56738,5.68827,5.68827,0,0,1-1.05079,1.41309,4.96852,4.96852,0,0,1-2.40234,1.28808,7.2708,7.2708,0,0,1-1.74023.19043,5.32537,5.32537,0,0,1-4.01661-1.73535,6.77539,6.77539,0,0,1-1.64648-4.8584,7.36994,7.36994,0,0,1,1.6582-4.9956,5.4589,5.4589,0,0,1,4.33692-1.91992A5.76335,5.76335,0,0,1,131.708,17.33789Zm.76953,5.01367a5.62637,5.62637,0,0,0-.60352-2.22949,3.08512,3.08512,0,0,0-2.91992-1.55029,3.22452,3.22452,0,0,0-2.46,1.06738,4.047,4.047,0,0,0-1.05176,2.7124Z"/><path d="M136.97266,16.98584h2.03808v2.20605a4.88564,4.88564,0,0,1,1.22852-1.56787,3.18388,3.18388,0,0,1,2.2539-.92431c.03907,0,.10743.00439.20215.0122q.14356.01173.48926.04786V19.0249a3.33,3.33,0,0,0-.35156-.04785c-.10742-.00781-.22461-.01172-.35254-.01172a3.06012,3.06012,0,0,0-2.49121,1.04346,3.63712,3.63712,0,0,0-.8711,2.40234v7.34473h-2.1455Z"/></svg>