<svg xmlns="http://www.w3.org/2000/svg" viewBox="0 0 200 43">
    <defs>
        <style>.cls-1 {
            fill: #ff8767;
        }</style>
    </defs>
    <g id="Calque_2" data-name="Calque 2">
        <g id="Calque_1-2" data-name="Calque 1">
            <path class="cls-1"
                  d="M15.66,29.7,13.1,28.57l-1.61-1.63L10.43,24.8,10,22.74V19.21l.45-2.11L11.49,15l1.65-1.61,2.52-1.1h2.52l2.5,1,1.08.84.94,1.11-1.42,1.34-.84-.93L19.7,15l-1.8-.77H16L14.3,15l-1.16,1.15-.81,1.61L12,19.35v3.22l.36,1.61.81,1.58,1.13,1.16,1.73.81h1.9L19.72,27l.74-.6.82-.93,1.42,1.34-.94,1.11-1.08.84-2.5,1ZM30,29.7l-2.42-1.13-1.27-1.8-.51-2.16V21.78l.51-2.16,1.27-1.8L30,16.67h2.88l2.4,1.15,1.27,1.8.5,2.16v2.83l-.5,2.16-1.27,1.8L32.82,29.7Zm.34-1.94h2.16l1.44-.7L34.7,26,35,24.37V22l-.33-1.59-.77-1.06-1.44-.72H30.33l-1.44.72-.77,1.06L27.78,22v2.37L28.12,26l.77,1.08ZM41.9,29.51V16.86h2v1.25l.6-.53,1.58-.91h2.45l2.14.57,1.46,2v10.3h-2V20l-.6-1-1.42-.44H46.34l-1.73,1.11-.72,1v8.74ZM63,29.7l-1.68-.62L60,27.18v-8H56.78v-2H60V12.75h2v4.42h4.75v2H62v7.39l.6.87.84.33h2.11l1.73-.43.5,1.9-2.23.5Zm11.28-.19V16.86h2v1.46l.91-.89,1.63-.76h2.52l2.23.76L83,19.31l-1.92-.68H79.22l-1.42.63-1,1.1-.53,1.15v8Zm17.47.19-2.43-1.15-1.63-2.21-.5-1.7V21.78l.5-1.75,1.63-2.21,2.4-1.15h2.62l2.42,1.15L98.39,20l.55,1.6v2.53H89.2v.24l.31,1.05L90.66,27l1.47.72h1.94l1.61-.41,1.25-.79,1,1.59-1.56,1-2.18.55ZM89.2,22.19H97v-.31L96.64,21,95.49,19.4,94,18.63h-2l-1.44.75-1.13,1.54-.29,1Zm18.36,7.51-2.42-1.15-1.64-2.21-.5-1.7V21.78l.5-1.75,1.64-2.21,2.42-1.15h2.69l1.82.6,1.68,1.58-1.41,1.32L111.09,19,110,18.63h-2.07l-1.53.75-1.11,1.51L105,22v2.31l.29,1.1L106.46,27l1.48.72H110l1.08-.38,1.25-1.15,1.39,1.36-1.66,1.54-1.82.6Zm11.26-.19V11.41h2v6.65l.57-.48,1.61-.91h2.45l2,.57,1.46,2v10.3h-2V20l-.6-.94-1.3-.41h-1.77l-1.68,1.11-.77,1.13v8.64Zm18.76.19L136,29.2l-1.15-.68-1.34-1.94V25.19l.33-1.63,1.78-1.78,2.37-.6h1.73l1.61.53.62.41V20.29l-.26-.72-1-.65-1.17-.29h-2l-1,.34-.74.48-.46.46-1.37-1.42.67-.62,1.16-.75,1.53-.45h2.47l1.73.43,1.78,1.2.65,1.63V27.2l.93,1.35-1.61,1.15L142.07,28l-.55.63-2.21,1.1Zm.29-2h1l1.8-.67,1-1,.24-.75V24.4l-.5-.53-.74-.39-1.2-.33h-1.3l-1.58.43-.94.94-.19.84V26l.74,1.06.55.34Zm9.87,1.78V16.86h2v1.25l.36-.53,1.1-.91h1.39l1.44.57.82,1.25.82-1,1.2-.81h1.39l1.44.57,1.37,2v10.3h-2v-9.6l-.6-.91-.69-.37h-.65l-1.2,1-.53,1v8.79h-2V20l-.6-1-.7-.41h-.64l-1.25,1.06-.48,1v8.81Zm16.92,3.89V16.86h2v1.27l.53-.55,1.49-.91H171l2.5,1.15L175.17,20l.5,1.7v2.86l-.5,1.75-1.63,2.21-2.4,1.15h-2.38l-1.44-.53-.67-.43V33.4Zm4.39-5.64h1.77l1.42-.77,1.15-1.54.29-1.13V22l-.29-1.08-1.15-1.57-1.51-.72H168.9l-1.56,1.11-.69,1v5.45l.5.62.91.6Zm14.66,1.94-1.94-.53-1.18-.89-.6-.62,1.39-1.34.51.55.67.5,1.42.39H186l1-.29.6-.43.41-.6v-.92l-.41-.69-.72-.51L183,23.63l-1.53-.82-1-1.39V19.28l.79-1.36,1.08-.84,1.49-.41h2.42l1.87.52,1.64,1-1.08,1.61-1.3-.79-1.3-.41h-2l-.91.26-.41.34-.33.57v1.06l.48.65.67.33,4.15.72,1.37.92L190,25v2l-.93,1.39-1.15.82-1.64.48Zm2.67-28.2L198.5,13.62V29.38l-6.06,6.06-6.06,6.06H13.62L7.56,35.44,1.5,29.38V13.62L13.62,1.5H186.38M187,0H13L0,13V30L13,43H187l13-13V13L187,0Z"/>
        </g>
    </g>
</svg>
