<svg xmlns="http://www.w3.org/2000/svg" viewBox="0 0 120 43">
    <defs>
        <style>.cls-1 {
            fill: #0091d1;
        }</style>
    </defs>
    <g id="Calque_2" data-name="Calque 2">
        <g id="Calque_1-2" data-name="Calque 1">
            <path class="cls-1"
                  d="M8.62,29V11.94H19.56v2H10.61v5h6.26v2H10.61V27h9v2ZM24.7,29V10.91h2v10.8L32,16.36h2.78l-5.18,5.06L35.06,29H32.64l-4.37-6.22-1.58,1.54V29Zm15.12,0V27h3.93V12.88H40.06v-2h5.68V27h3.94v2Zm18.79.19-2.43-1.15-1.63-2.21-.5-1.7V21.28l.5-1.75,1.63-2.21,2.4-1.15H61.2l2.42,1.15,1.61,2.21.55,1.6v2.53H56v.24L56.35,25l1.15,1.56,1.47.72h1.94l1.61-.41L63.77,26l1,1.59-1.56,1-2.18.55ZM56,21.69h7.75v-.31l-.31-.92L62.33,18.9l-1.47-.77h-2l-1.44.75-1.13,1.54-.29,1ZM70.78,29V10.91h2v10.8l5.35-5.35H80.9l-5.18,5.06L81.14,29H78.72l-4.37-6.22-1.58,1.54V29Zm20.52.19-1.68-.62-1.32-1.9v-8H85.06v-2H88.3V12.25h2v4.42H95v2H90.29V26l.6.87.84.33h2.11l1.73-.43.5,1.9-2.23.5Zm13,0-2.42-1.13-1.27-1.8-.51-2.16V21.28l.51-2.16,1.27-1.8,2.4-1.15h2.88l2.4,1.15,1.27,1.8.5,2.16v2.83l-.5,2.16-1.27,1.8-2.43,1.13Zm.34-1.94h2.16l1.44-.7.77-1.08.33-1.61V21.5l-.33-1.59-.77-1.06-1.44-.72h-2.16l-1.44.72-.77,1.06-.34,1.59v2.37l.34,1.61.77,1.08ZM106.38,1.5,118.5,13.62V29.38l-6.06,6.06-6.06,6.06H13.62L7.56,35.44,1.5,29.38V13.62L13.62,1.5h92.76M107,0H13L0,13V30L13,43h94l13-13V13L107,0Z"/>
        </g>
    </g>
</svg>
