<svg xmlns="http://www.w3.org/2000/svg" viewBox="0 0 157.39 39"><g id="Calque_2" data-name="Calque 2"><g id="Calque_1-2" data-name="Calque 1"><path d="M49.77,38.84h1.28V32.51H49.77Zm72-6.33-1.7,4.34-1.68-4.34H117l2.51,6.33h1.09l2.52-6.33Zm2.72,6.33h1.29V32.51h-1.29Zm7.36-6.33-1.7,4.34-1.68-4.34H127.1l2.51,6.33h1.1l2.51-6.33Zm-124.27,5-.21-.12L7.07,37v-.24l.08-.32L7.53,36l.65-.18h.47L9.2,36l.28.13.19.2v.34l-.09.26-.41.44-.78.3H8.05Zm.17-5.09-.8.24L6.4,33l-.48.45.89.92.34-.32.32-.22.4-.14h.77l.53.13.41.28.09.24v.52l-.05,0-.79-.27H8l-1.18.31-.9.91-.18.83v.73l.7,1,.59.35.81.25h.77l1.11-.56.14-.16.53.78,1-.74-.5-.74V34.1l-.34-.84-.95-.64-.8-.2Zm13.67,4.95-.27-.4L21,36.22v-1.1l.15-.71.3-.42.56-.3h.83l.59.3.29.43.16.7v1.1l-.16.74-.27.41-.62.31H22Zm.38-4.95-1.22.6-.63.92-.23,1v1.42l.23,1,.63.92,1.22.59h1.27l1.23-.59.63-.92.22-1V35l-.22-1L24.3,33l-1.23-.6Zm7.1,0-.84.4-.15.15v-.46H26.63v6.33h1.28v-3.9l.24-.52.42-.47.56-.26h.4l.62.17.31-1.24-.73-.2ZM33,37.51l-.22-.12-.3-.43v-.24l.08-.32L32.9,36l.65-.18H34l.55.17.28.13.19.2v.34l-.1.26-.41.44-.78.3h-.33Zm.17-5.09-.81.24-.54.34-.48.45.89.92.33-.32.33-.22.4-.14H34l.53.13.41.28.1.24v.52l0,0-.79-.27h-.8l-1.18.31-.89.91-.18.83v.73l.69,1,.59.35.82.25H34l1.1-.56.15-.16.52.78,1-.74-.51-.74V34.1L36,33.26l-1-.64-.81-.2Zm11.09,4.95-.28-.4-.15-.75v-1.1l.15-.71.3-.42.56-.3h.83l.59.3.29.43.16.7v1.1L46.5,37l-.26.41-.63.31h-.79Zm.37-4.95-1.22.6-.63.92-.23,1v1.42l.23,1,.63.92,1.22.59h1.27l1.23-.59.63-.92.22-1V35l-.22-1L47.08,33l-1.23-.6Zm10.76,0-.84.4-.14.15v-.46H53.07v6.33h1.29v-3.9l.24-.52L55,34l.55-.26H56l.61.17.32-1.24-.74-.2Zm3.5,2.28.52-.7.58-.31h.65l.62.34.49.68.13.39H58.76Zm.9-2.28-1.22.6-.81,1.08-.25.9v1.38l.25.88.81,1.08,1.22.6h1l1.06-.26.92-.62-.67-1-.73.44-.72.2H60l-.62-.3-.5-.71-.13-.29h4.39V34.93l-.29-.83L62.05,33l-1.23-.6ZM76.42,34.7l.52-.7.58-.31h.65l.62.34.49.68.13.39H76.33Zm.9-2.28L76.1,33l-.81,1.08L75,35v1.38l.25.88.81,1.08,1.22.6h1l1.06-.26.92-.62-.67-1-.73.44-.72.2h-.62l-.62-.3-.51-.71-.12-.29h4.39V34.93l-.29-.83L79.63,33l-1.23-.6Zm6.29,0-.73.2-.59.44-.4.71V34.9l.53.72.8.44,1.62.33.27.18.15.26v.34l-.15.22-.24.17-.4.12h-.7l-.7-.19-.26-.21-.31-.36-.9.87.38.43.58.47,1,.25h1l.85-.24.61-.44.47-.71V36.47l-.5-.8-.71-.47-1.75-.34-.25-.14-.17-.21V34.1l.11-.19.12-.11.43-.12h.71l.58.18.65.44.7-1-.85-.58-1-.25ZM93,37.51l-.22-.12-.3-.43v-.24l.08-.32L93,36l.65-.18h.47l.55.17.27.13.2.2v.34l-.1.26-.41.44-.78.3h-.33Zm.17-5.09-.81.24-.54.34-.48.45.89.92.33-.32.33-.22.39-.14h.77l.53.13.41.28.1.24v.52l0,0-.79-.27h-.8l-1.17.31-.9.91-.19.83v.73l.7,1,.59.35.82.25h.77l1.1-.56.15-.16.52.78,1-.74-.51-.74V34.1l-.33-.84-1-.64-.81-.2Zm7.3,0-.84.4-.14.15v-.46H98.24v6.33h1.29v-3.9l.23-.52.42-.47.56-.26h.41l.61.17.31-1.24-.73-.2Zm9.36,0-.72.2-.59.44-.41.71V34.9l.53.72.81.44,1.62.33.26.18.16.26v.34l-.16.22-.24.17-.39.12H110l-.7-.19-.26-.21-.32-.36-.9.87.39.43.57.47,1,.25h1.06l.84-.24.61-.44.47-.71V36.47l-.49-.8-.71-.47-1.75-.34-.26-.14-.16-.21V34.1l.1-.19.12-.11.44-.12h.7l.58.18.65.44.71-1-.85-.58-.95-.25Zm25.81,5.09-.22-.12-.3-.43v-.24l.09-.32.38-.39.65-.18h.47l.55.17.28.13.19.2v.34l-.1.26-.41.44-.78.3h-.33Zm.17-5.09-.81.24-.54.34-.48.45.89.92.34-.32.32-.22.4-.14h.77l.52.13.41.28.1.24v.52l-.05,0-.79-.27h-.79l-1.18.31-.9.91-.18.83v.73l.69,1,.59.35.82.25h.77l1.1-.56.15-.16.53.78,1-.74-.5-.74V34.1l-.34-.84-.95-.64-.81-.2Zm7.38,0-.83.48v-.39h-1.29v6.33h1.29V34.59l.28-.41.75-.49h.64l.6.19.23.33v4.63h1.28v-5.1l-.76-1-1.11-.3Zm11.23,0-.72.2-.59.44-.41.71V34.9l.53.72.81.44,1.62.33.26.18.16.26v.34l-.16.22-.24.17-.4.12h-.69l-.7-.19-.26-.21-.32-.36-.9.87.39.43.57.47,1,.25h1.06l.84-.24.61-.44.47-.71V36.46l-.49-.79-.71-.47-1.75-.34-.26-.14-.17-.21V34.1l.11-.19.12-.11.44-.12h.7l.58.18.65.44.71-1-.85-.58-.95-.25Zm-116-2v2.21H37.37v1.27h1.08v3.69l.68,1,.89.34h.58l1.23-.28-.33-1.25-1,.26h-.25L40,37.52l-.21-.29V33.94h1.57V32.67H39.74V30.46Zm65.36,0v2.21h-1.08v1.27h1.08v3.69l.69,1,.89.34H106l1.23-.28-.32-1.25-1,.26h-.25l-.32-.15-.22-.29V33.94h1.57V32.67H105.1V30.46Zm44.59,0v2.21h-1.08v1.27h1.08v3.69l.69,1,.89.34h.57l1.23-.28-.32-1.25-1,.26h-.25l-.32-.15-.22-.29V33.94h1.57V32.67h-1.57V30.46ZM0,30.3v8.54H5V37.56H1.3V30.3Zm14.88,7.23-.39-.24-.19-.24V34.58l.3-.43.66-.46h.65l.66.31.49.7.12.43V36.2l-.12.46-.5.68-.6.34h-.69ZM13,29.78v9.06H14.3V38.6l.1.08.7.26h1.07l1.23-.6.8-1.08.27-.9V35l-.27-.87L17.4,33l-1.25-.58H15l-.72.44V29.78Zm36.55,1.75h1.69V29.78H49.56Zm20.23,5.82-.5-.69-.12-.42V35.16l.12-.46L69.8,34l.6-.33h.68l.4.14.38.24.2.24v2.48l-.3.43-.66.46h-.65Zm2.27-7.57v3l-.1-.07-.72-.26H70.18L69,33l-.81,1.08-.26.9v1.38l.26.88L69,38.35l1.25.59h1.13l.73-.44v.34h1.27V29.78Zm52.23,1.75H126V29.78h-1.68Zm27.81-6.31,2.31-.66,1.69-1.23,1.29-1.95v-3L156,16.22l-1.95-1.29-4.83-1-.69-.37-.47-.59V11.88l.3-.53.33-.3,1.19-.33h2l1.58.5,1.79,1.22,1.95-2.91-2.35-1.59-2.61-.69h-2.91l-2,.56L145.71,9l-1.13,2V14.1l1.46,2,2.22,1.19,4.47.93.72.5.43.69v1l-.43.6-.66.46-1.09.33h-1.92l-1.92-.53-.73-.56-.86-1L143.79,22l1.06,1.19,1.59,1.29,2.74.7Zm-13.54,0,3.38-.76L141,21l-2.68.7h-.69l-.9-.4-.59-.79V11.45h4.33V7.94h-4.33V1.85h-3.54V7.94h-3v3.51h3V21.61l1.88,2.68,2.45.93ZM125.75,7.51h-3.54V25h3.54ZM126.28,0h-4.63V4.8h4.63ZM106.89,20.88l-.76-1.09-.4-2.05v-3l.4-1.95.83-1.16,1.55-.82h2.29l1.62.82.79,1.19.43,1.92v3l-.43,2-.73,1.12-1.72.86h-2.18Zm4.54,4.34,3.37-1.62,1.75-2.55.6-2.85V14.3l-.6-2.85L114.8,8.9l-3.37-1.65h-3.51L104.57,8.9l-1.75,2.55-.63,2.85v3.9l.63,2.85,1.75,2.55,3.35,1.62ZM97,25.22l3.38-.76L99.45,21l-2.69.7h-.69l-.89-.4-.6-.79V11.45h4.34V7.94H94.58V1.85H91V7.94h-3v3.51h3V21.61l1.89,2.68,2.45.93Zm-31.07-4.5L65,19.49l-.47-1.62V15.45l.4-.62,1.36-1.13,2-.86h1.76l1.79,1,.89,1.26.36,1.16v2l-.49,1.49-.73,1L70,21.64H67.74Zm4.93,4.5,3.47-1.76L76.05,21l.63-2.34V15.79l-.6-2.19-1.75-2.55L70.82,9.3H67.68l-2.85,1.16-.3.3V9.37l.53-2c.3-.4,1.06-1.32,1.36-1.72l2-.93h1.72l2.15,1L73.53,7l2.55-2.55L74.29,2.75,70.92,1.16H67.54L64,2.81l-2.25,3L61,8.8v9.53l.73,2.59,1.78,2.58,3.44,1.72Zm-28.56,0,2.32-.66,1.68-1.23,1.3-1.95v-3L46.2,16.22l-2-1.29-4.84-1-.69-.37L38.26,13V11.88l.29-.53.34-.3,1.19-.33h2l1.59.5,1.78,1.22,2-2.91L45,7.94l-2.62-.69H39.48l-2,.56L35.87,9l-1.12,2V14.1l1.45,2,2.22,1.19,4.47.93.73.5.43.69v1l-.43.6-.66.46-1.1.33H39.94L38,21.21l-.72-.56-.86-1L34,22,35,23.23l1.59,1.29,2.75.7ZM19.69,13.54l1.42-1.92,1.63-.86h1.78l1.69.92,1.36,1.89.36,1.06H19.46ZM25,25.22l2.91-.73,2.55-1.69L28.56,20l-2,1.22-2,.53H22.87l-1.72-.83-1.39-1.95-.33-.79H31.51v-4l-.8-2.28-2.18-3L25.15,7.25h-3L18.8,8.9l-2.22,3-.7,2.48v3.81l.7,2.41,2.22,3,3.37,1.66ZM13.87,25V21.41H3.57v-20H0V25Z"/></g></g></svg>