<svg xmlns="http://www.w3.org/2000/svg" viewBox="0 0 353 72.21">
    <defs>
        <style>.cls-1 {
            fill: #d8be00;
        }</style>
    </defs>
    <g id="Calque_2" data-name="Calque 2">
        <g id="Calque_1-2" data-name="Calque 1">
            <path class="cls-1"
                  d="M9.74,29V11.94h2V27H21v2ZM29.46,18.74,28.14,18l1.49-2.76-1.1-.44V11.94h3.14v2.93ZM44.25,29.2l-2.45-.94-1.63-1.65-1.11-2.19-.45-2.13V18.52l.48-2.16,1.1-2.14,1.71-1.61,2.4-.86h2.06l2.4.86,1.7,1.61,1.11,2.14.48,2.16v3.77l-.46,2.13-1.1,2.19-1.63,1.65-2.45.94Zm.38-2H46l1.73-.65,1.08-1,.84-1.66.39-1.8V18.69l-.36-1.61-.89-1.75-1.13-1L46,13.72H44.63L43,14.29l-1.13,1L41,17.08l-.36,1.61v3.38l.38,1.8.84,1.66,1.08,1ZM57.5,29V16.36h2v1.46l.91-.89L62,16.17h2.52l2.23.76-.6,1.88-1.92-.68H62.42L61,18.76l-1,1.1L59.49,21v8Zm17.9.19L73,28.05l-1.64-2.21-.5-1.7V21.28l.5-1.75L73,17.32l2.42-1.15h2.69l1.82.6,1.68,1.58-1.41,1.32-1.25-1.2-1.08-.34H75.78l-1.53.75-1.11,1.51-.31,1.15v2.31l.29,1.1,1.18,1.56,1.48.72h2.07l1.08-.38,1.25-1.15,1.39,1.36L79.91,28.6l-1.82.6ZM86.66,29V10.91h2v6.65l.57-.48,1.61-.91h2.45l2,.57,1.46,2V29h-2V19.48l-.6-.94-1.3-.41H91.1l-1.68,1.11-.77,1.13V29Zm19,.19-2.43-1.15-1.63-2.21-.5-1.7V21.28l.5-1.75,1.63-2.21,2.4-1.15h2.62l2.42,1.15,1.61,2.21.55,1.6v2.53h-9.74v.24l.31,1.05,1.15,1.56,1.47.72H108l1.61-.41,1.25-.79,1.05,1.59-1.56,1-2.18.55Zm-2.57-7.51h7.75v-.31l-.31-.92-1.15-1.56-1.47-.77h-2l-1.44.75-1.13,1.54-.29,1Zm17.71,7.51-1.94-.53-1.18-.89-.6-.62,1.39-1.34.51.55.67.5,1.42.39h2.06l1-.29.6-.43.41-.6V25l-.41-.69-.72-.51-3.94-.69-1.53-.82-1-1.39V18.78l.79-1.36,1.08-.84,1.49-.41h2.42l1.87.52,1.64,1-1.08,1.61-1.3-.79-1.3-.41h-2l-.91.26-.41.34-.33.57v1.06L120,21l.67.33,4.15.72,1.37.92.93,1.53v2l-.93,1.39-1.15.82-1.64.48Zm17.55,0-1.68-.62-1.32-1.9v-8h-3.24v-2h3.24V12.25h2v4.42h4.75v2h-4.75V26l.6.87.84.33h2.11l1.73-.43.5,1.9-2.23.5ZM149.66,29V16.36h2v1.46l.91-.89,1.63-.76h2.52l2.23.76-.6,1.88-1.92-.68h-1.84l-1.42.63-1,1.1L151.65,21v8Zm17.47.19-2.43-1.15-1.63-2.21-.5-1.7V21.28l.5-1.75,1.63-2.21,2.4-1.15h2.62l2.42,1.15,1.61,2.21.55,1.6v2.53h-9.74v.24l.31,1.05L166,26.51l1.47.72h1.94l1.61-.41,1.25-.79,1.05,1.59-1.56,1-2.18.55Zm-2.57-7.51h7.75v-.31l-.31-.92-1.15-1.56-1.47-.77h-2l-1.44.75-1.13,1.54-.29,1Zm33,7.51L195,28.05l-1.63-2.21-.51-1.7V21.28l.51-1.75L195,17.32l2.4-1.15h2.38l1.44.52.67.44V10.91h2V29h-2V27.74l-.53.55-1.48.91Zm.31-2h1.82l1.56-1.1.7-1V19.65l-.51-.63-.91-.6-1-.31h-1.78l-1.41.77-1.16,1.54-.28,1.12v2.33l.28,1.08,1.16,1.56Zm15.36,2-2.43-1.15-1.63-2.21-.5-1.7V21.28l.5-1.75,1.63-2.21,2.4-1.15h2.62l2.42,1.15,1.61,2.21.55,1.6v2.53h-9.74v.24L211,25l1.15,1.56,1.47.72h1.94l1.61-.41,1.25-.79,1,1.59-1.56,1-2.18.55Zm-2.57-7.51h7.75v-.31l-.31-.92-1.15-1.56-1.47-.77h-2l-1.44.75-1.13,1.54-.29,1Zm33.72,7.51-2.42-1.15-1.64-2.21-.5-1.7V21.28l.5-1.75,1.64-2.21,2.42-1.15h2.69l1.82.6,1.68,1.58-1.41,1.32-1.25-1.2-1.08-.34h-2.07l-1.53.75-1.11,1.51-.31,1.15v2.31l.29,1.1,1.18,1.56,1.48.72h2.07l1.08-.38,1.25-1.15,1.39,1.36-1.66,1.54-1.82.6ZM255.62,29V10.91h2v6.65l.57-.48,1.61-.91h2.45l2,.57,1.46,2V29h-2V19.48l-.6-.94-1.3-.41h-1.77l-1.68,1.11-.77,1.13V29Zm18.76.19-1.63-.5L271.6,28l-1.35-1.94V24.69l.34-1.63,1.78-1.78,2.37-.6h1.73l1.61.53.62.41V19.79l-.26-.72-1-.65-1.17-.29h-1.95l-1,.34-.74.48-.46.46L270.71,18l.67-.62,1.16-.75,1.53-.45h2.47l1.73.43,1.78,1.2.65,1.63V26.7l.93,1.35L280,29.2l-1.15-1.73-.55.63-2.21,1.1Zm.29-2h1l1.8-.67,1-1,.24-.75V23.9l-.5-.53-.74-.39-1.2-.33H275l-1.58.43-.94.94-.19.84v.64l.74,1.06.55.34ZM284.53,29V16.36h2v1.25l.36-.53,1.1-.91h1.39l1.44.57.82,1.25.82-1,1.2-.81h1.39l1.44.57,1.37,2V29h-2v-9.6l-.6-.91-.69-.37h-.65l-1.2,1-.53,1V29h-2V19.5l-.6-1-.7-.41h-.64L287,19.19l-.48,1V29Zm21,.19-1.44-.53-.67-.43V29h-2V10.91h2v6.72l.53-.55,1.46-.91h2.4l2.5,1.15L312,19.53l.5,1.7v2.86l-.5,1.75-1.63,2.21-2.4,1.15Zm.29-1.94h1.77l1.42-.77L310.19,25l.29-1.13V21.5l-.29-1.08L309,18.85l-1.51-.72H305.7l-1.56,1.11-.69,1v5.45l.5.62.91.6ZM318.62,29V16.36h2v1.46l.91-.89,1.63-.76h2.52l2.23.76-.6,1.88-1.92-.68h-1.84l-1.42.63-1,1.1L320.61,21v8Zm17.47.19-2.43-1.15L332,25.84l-.5-1.7V21.28l.5-1.75,1.63-2.21,2.4-1.15h2.62l2.42,1.15,1.61,2.21.55,1.6v2.53h-9.74v.24l.31,1.05L335,26.51l1.47.72h1.94l1.61-.41,1.25-.79,1.05,1.59-1.56,1-2.18.55Zm-2.57-7.51h7.75v-.31l-.31-.92-1.15-1.56-1.47-.77h-2l-1.44.75-1.13,1.54-.29,1ZM212.9,58.21l-2.5-1.15-1.63-2.21-.51-1.71V50.29l.51-1.75,1.63-2.21,2.4-1.16h2.38l1.44.53.67.43V39.92h2V58h-2V56.74l-.53.56-1.48.91Zm.31-2H215l1.56-1.1.7-1V48.66l-.51-.63-.91-.6-1-.31h-1.78l-1.41.77-1.16,1.53-.28,1.13v2.33l.28,1.08,1.16,1.56Zm15.36,2-2.43-1.15-1.63-2.21-.5-1.71V50.29l.5-1.75,1.63-2.21,2.4-1.16h2.62l2.42,1.16,1.61,2.21.55,1.6v2.52H226v.24l.31,1.06,1.15,1.56,1.47.72h1.94l1.61-.41,1.25-.79,1.05,1.58-1.56,1-2.18.55ZM226,50.7h7.75v-.32l-.31-.91-1.15-1.56-1.47-.77h-2l-1.44.75-1.13,1.53L226,50.48Zm33.43,7.51-2.57-1.13-1.6-1.63-1.06-2.14-.46-2.06V47.72l.46-2.11,1.06-2.14,1.65-1.61,2.52-1.1H262l2.5.91,1.13.86.93,1.13-1.46,1.27-.79-1-.8-.6-1.84-.64h-1.85l-1.71.76-1.15,1.16-.81,1.6-.36,1.61v3.22l.36,1.61.81,1.58L258,55.42l1.73.82h1.89l1.37-.6,1.13-1,.79-1.28.17-.86V51.34h-4.18v-2h6.17v3.24L266.85,54l-1.06,1.78-1.63,1.46-2.16.94Zm15.22,0-2.43-1.15-1.63-2.21-.5-1.71V50.29l.5-1.75,1.63-2.21,2.4-1.16h2.62l2.42,1.16,1.61,2.21.55,1.6v2.52h-9.74v.24l.31,1.06,1.15,1.56,1.47.72H277l1.61-.41,1.25-.79,1.05,1.58-1.56,1-2.18.55Zm-2.57-7.51h7.75v-.32l-.31-.91-1.15-1.56-1.47-.77h-2l-1.44.75-1.13,1.53-.29,1.06ZM286.22,58V45.37h2v1.24l.6-.52,1.58-.92h2.45l2.14.58,1.46,2V58h-2V48.54l-.6-1-1.42-.44h-1.77l-1.73,1.11-.72,1V58Zm19.15.19-2.43-1.15-1.63-2.21-.5-1.71V50.29l.5-1.75,1.63-2.21,2.4-1.16H308l2.42,1.16L312,48.54l.55,1.6v2.52H302.8v.24l.31,1.06,1.15,1.56,1.47.72h1.94l1.61-.41,1.25-.79,1.05,1.58-1.56,1-2.18.55ZM302.8,50.7h7.75v-.32l-.31-.91-1.15-1.56-1.47-.77h-2l-1.44.75-1.13,1.53-.29,1.06Zm5.28-6.34-4.3-3,1-1.46,4.29,3ZM320.9,58l-5.5-12.65h2.16l4.25,10,4.25-10h2.16L322.72,58Zm15.19.19-2.43-1.15L332,54.85l-.5-1.71V50.29l.5-1.75,1.63-2.21,2.4-1.16h2.62l2.42,1.16,1.61,2.21.55,1.6v2.52h-9.74v.24l.31,1.06L335,55.52l1.47.72h1.94l1.61-.41,1.25-.79,1.05,1.58-1.56,1-2.18.55Zm-2.57-7.51h7.75v-.32l-.31-.91-1.15-1.56-1.47-.77h-2l-1.44.75-1.13,1.53-.29,1.06Zm5.86-49.2L351.5,13.62V29.38l-5.72,5.72-1.06,1.06,1.06,1.06,5.61,5.61V58.59L339.27,70.71H211.51L199.39,58.59V48.38l-.44-.44-2.18-2.18L193,41.94l-.44-.44H13.62L7.56,35.44,1.5,29.38V13.62L7.56,7.56,13.62,1.5H339.38M340,0H13L0,13V30L13,43H191.89l6,6V59.21l13,13h129l13-13v-17l-6.05-6.05L353,30V13L340,0Z"/>
        </g>
    </g>
</svg>
